:FULLY-SPECIFIED
:FORCE-ALL-JOINTS-BE-3DOF
:DEGREES
747
root 4.13755 16.7631 14.4607 -163.386 -8.45833 189.06
lfemur -32.0227 1.16411 -15.0946
ltibia 44.9721 0 0
lfoot -29.2336 6.43259 0
ltoes 5.60544 0 0
rfemur -27.6231 -32.4842 10.7972
rtibia 106.438 0 0
rfoot 15.264 3.7326 0
rtoes 17.0378 0 0
lowerback 2.50695 6.73626 -2.10187
upperback -1.36022 8.88175 -1.39785
thorax -2.88498 4.45807 -0.717083
lowerneck -6.51883 -8.52373 -1.2695
upperneck -2.06642 -11.4681 5.34852
head 0.848963 -5.74959 1.5363
lclavicle -2.59746e-14 8.48148e-15 0
lhumerus -54.8112 -5.63031 74.9134
lradius 48.5694 0 0
lwrist 16.026 0 0
lhand -28.0393 -4.18612 0
lfingers 7.12502 0 0
lthumb -1.42378 25.7842 0
rclavicle -2.59746e-14 8.48148e-15 0
rhumerus 25.2923 38.7968 -67.5867
rradius 95.9586 0 0
rwrist -1.14973 0 0
rhand -21.7104 -21.1091 0
rfingers 7.12502 0 0
rthumb 4.68751 -771.001 0
748
root 4.09442 16.6335 14.6537 -163.366 -6.27455 188.937
lfemur -33.5611 3.06273 -16.149
ltibia 47.3628 0 0
lfoot -30.0678 7.00575 0
ltoes 5.86649 0 0
rfemur -27.6102 -32.611 12.4623
rtibia 104.666 0 0
rfoot 14.9559 2.78465 0
rtoes 17.4561 0 0
lowerback 2.79647 6.54479 -2.42833
upperback -1.20205 8.60763 -1.57433
thorax -2.90132 4.32651 -0.729919
lowerneck -6.38658 -8.60838 -1.43185
upperneck -2.14381 -11.5817 5.71525
head 0.842376 -5.81006 1.67996
lclavicle -2.24627e-14 9.93923e-15 0
lhumerus -53.7884 -5.69189 77.0838
lradius 49.0802 0 0
lwrist 15.4428 0 0
lhand -28.5573 -4.42666 0
lfingers 7.12502 0 0
lthumb -1.92413 25.5391 0
rclavicle -2.24627e-14 9.93923e-15 0
rhumerus 22.0705 41.2385 -70.7178
rradius 95.6519 0 0
rwrist -0.05452 0 0
rhand -20.2882 -20.0029 0
rfingers 7.12502 0 0
rthumb 6.06043 -769.855 0
749
root 4.05129 16.5039 14.8466 -163.347 -4.09076 188.814
lfemur -35.0996 4.96135 -17.2035
ltibia 49.7535 0 0
lfoot -30.9019 7.5789 0
ltoes 6.12754 0 0
rfemur -27.5973 -32.7378 14.1275
rtibia 102.893 0 0
rfoot 14.6478 1.83669 0
rtoes 17.8744 0 0
lowerback 3.08599 6.35332 -2.75478
upperback -1.04389 8.3335 -1.75081
thorax -2.91765 4.19494 -0.742755
lowerneck -6.25433 -8.69302 -1.5942
upperneck -2.2212 -11.6953 6.08199
head 0.835789 -5.87052 1.82362
lclavicle -1.89508e-14 1.1397e-14 0
lhumerus -52.7657 -5.75347 79.2541
lradius 49.5911 0 0
lwrist 14.8596 0 0
lhand -29.0754 -4.66719 0
lfingers 7.12502 0 0
lthumb -2.42449 25.2941 0
rclavicle -1.89508e-14 1.1397e-14 0
rhumerus 18.8486 43.6801 -73.849
rradius 95.3453 0 0
rwrist 1.04069 0 0
rhand -18.866 -18.8968 0
rfingers 7.12502 0 0
rthumb 7.43335 -768.709 0
750
root 4.00815 16.3743 15.0396 -163.327 -1.90697 188.691
lfemur -36.638 6.85998 -18.2579
ltibia 52.1442 0 0
lfoot -31.7361 8.15206 0
ltoes 6.38859 0 0
rfemur -27.5845 -32.8646 15.7926
rtibia 101.121 0 0
rfoot 14.3396 0.888732 0
rtoes 18.2927 0 0
lowerback 3.37552 6.16186 -3.08123
upperback -0.885724 8.05938 -1.92729
thorax -2.93398 4.06337 -0.755591
lowerneck -6.12209 -8.77767 -1.75655
upperneck -2.29858 -11.8088 6.44872
head 0.829202 -5.93098 1.96728
lclavicle -1.5439e-14 1.28547e-14 0
lhumerus -51.743 -5.81505 81.4244
lradius 50.102 0 0
lwrist 14.2763 0 0
lhand -29.5935 -4.90773 0
lfingers 7.12502 0 0
lthumb -2.92484 25.049 0
rclavicle -1.5439e-14 1.28547e-14 0
rhumerus 15.6268 46.1218 -76.9801
rradius 95.0386 0 0
rwrist 2.13591 0 0
rhand -17.4439 -17.7906 0
rfingers 7.12502 0 0
rthumb 8.80628 -767.564 0
751
root 3.96502 16.2447 15.2325 -163.307 0.27681 188.568
lfemur -38.1764 8.7586 -19.3123
ltibia 54.5349 0 0
lfoot -32.5703 8.72522 0
ltoes 6.64964 0 0
rfemur -27.5716 -32.9914 17.4578
rtibia 99.3486 0 0
rfoot 14.0315 -0.059226 0
rtoes 18.711 0 0
lowerback 3.66504 5.97039 -3.40768
upperback -0.727559 7.78526 -2.10377
thorax -2.95031 3.9318 -0.768427
lowerneck -5.98984 -8.86231 -1.9189
upperneck -2.37597 -11.9224 6.81546
head 0.822615 -5.99144 2.11094
lclavicle -1.19271e-14 1.43125e-14 0
lhumerus -50.7203 -5.87663 83.5947
lradius 50.6128 0 0
lwrist 13.6931 0 0
lhand -30.1116 -5.14826 0
lfingers 7.12502 0 0
lthumb -3.42519 24.804 0
rclavicle -1.19271e-14 1.43125e-14 0
rhumerus 12.405 48.5634 -80.1113
rradius 94.7319 0 0
rwrist 3.23112 0 0
rhand -16.0217 -16.6844 0
rfingers 7.12502 0 0
rthumb 10.1792 -766.418 0
752
root 3.88848 16.1845 15.3896 -163.379 3.32572 188.574
lfemur -38.9731 10.5575 -20.1936
ltibia 55.5455 0 0
lfoot -32.7409 9.34268 0
ltoes 7.56102 0 0
rfemur -26.9667 -32.8707 18.2602
rtibia 97.3225 0 0
rfoot 14.0754 -1.26329 0
rtoes 19.9293 0 0
lowerback 3.71007 5.88416 -3.53807
upperback -0.677415 7.6729 -2.36899
thorax -2.90356 3.88175 -0.961551
lowerneck -5.8653 -8.90053 -1.93857
upperneck -2.24943 -11.9231 6.76135
head 0.839451 -5.96105 2.10019
lclavicle -1.49751e-14 1.03368e-14 0
lhumerus -50.6007 -6.72474 84.7163
lradius 52.3912 0 0
lwrist 13.473 0 0
lhand -30.027 -5.65608 0
lfingers 7.12502 0 0
lthumb -3.34353 24.2974 0
rclavicle -1.49751e-14 1.03368e-14 0
rhumerus 8.37567 49.4507 -83.3585
rradius 93.4255 0 0
rwrist 3.70464 0 0
rhand -16.2558 -16.8471 0
rfingers 7.12502 0 0
rthumb 9.95331 -766.591 0
